<svg xmlns="http://www.w3.org/2000/svg" xmlns:svg="http://www.w3.org/2000/svg" xmlns:xlink="http://www.w3.org/1999/xlink" id="svg2" width="353.63" height="353.63" version="1.0"><defs id="defs4"><linearGradient id="linearGradient8515"><stop style="stop-color:#d7a127;stop-opacity:.6796875" id="stop8517" offset="0"/><stop style="stop-color:#ffffe6;stop-opacity:0" id="stop8519" offset="1"/></linearGradient><linearGradient id="linearGradient3709"><stop style="stop-color:#ffff82;stop-opacity:1" id="stop3711" offset="0"/><stop style="stop-color:#ffff82;stop-opacity:0" id="stop3713" offset="1"/></linearGradient><linearGradient id="linearGradient3693"><stop style="stop-color:#ffff82;stop-opacity:1" id="stop3695" offset="0"/><stop style="stop-color:#ffff82;stop-opacity:0" id="stop3697" offset="1"/></linearGradient><linearGradient id="linearGradient3645"><stop style="stop-color:#ffff23;stop-opacity:.49803922" id="stop3649" offset="0"/><stop id="stop3651" offset="1" style="stop-color:#ffff23;stop-opacity:0"/></linearGradient><linearGradient id="linearGradient3635"><stop style="stop-color:#ffff23;stop-opacity:1" id="stop3637" offset="0"/><stop id="stop3643" offset=".5" style="stop-color:#ffff23;stop-opacity:.49803922"/><stop style="stop-color:#ffff23;stop-opacity:0" id="stop3639" offset="1"/></linearGradient><linearGradient id="linearGradient3699" x1="265.224" x2="190.077" y1="154.712" y2="101.667" gradientTransform="translate(0,10)" gradientUnits="userSpaceOnUse" xlink:href="#linearGradient3693"/><linearGradient id="linearGradient3715" x1="132.612" x2="57.465" y1="154.712" y2="101.667" gradientTransform="translate(0,10)" gradientUnits="userSpaceOnUse" xlink:href="#linearGradient3709"/><linearGradient id="linearGradient3721" x1="212.179" x2="145.873" y1="114.928" y2="79.565" gradientUnits="userSpaceOnUse" xlink:href="#linearGradient3693"/><linearGradient id="linearGradient3725" x1="212.179" x2="141.453" y1="114.928" y2="75.145" gradientUnits="userSpaceOnUse" xlink:href="#linearGradient3693"/><linearGradient id="linearGradient3939" x1="212.179" x2="145.873" y1="114.928" y2="79.565" gradientUnits="userSpaceOnUse" xlink:href="#linearGradient3693"/><linearGradient id="linearGradient8521" x1="216.442" x2="80.181" y1="209.026" y2="163.606" gradientUnits="userSpaceOnUse" xlink:href="#linearGradient8515"/><linearGradient id="linearGradient8523" x1="216.442" x2="80.181" y1="209.026" y2="163.606" gradientUnits="userSpaceOnUse" xlink:href="#linearGradient8515"/><linearGradient id="linearGradient8525" x1="216.442" x2="80.181" y1="209.026" y2="163.606" gradientUnits="userSpaceOnUse" xlink:href="#linearGradient8515"/><linearGradient id="linearGradient8527" x1="216.442" x2="80.181" y1="209.026" y2="163.606" gradientUnits="userSpaceOnUse" xlink:href="#linearGradient8515"/><linearGradient id="linearGradient8529" x1="197.831" x2="161.68" y1="58.432" y2="42.983" gradientUnits="userSpaceOnUse" xlink:href="#linearGradient8515"/><linearGradient id="linearGradient8531" x1="191.414" x2="107.989" y1="152.483" y2="100.11" gradientUnits="userSpaceOnUse" xlink:href="#linearGradient8515"/><linearGradient id="linearGradient8533" x1="198.367" x2="80.181" y1="209.026" y2="163.606" gradientUnits="userSpaceOnUse" xlink:href="#linearGradient8515"/><linearGradient id="linearGradient8535" x1="216.442" x2="80.181" y1="209.026" y2="163.606" gradientUnits="userSpaceOnUse" xlink:href="#linearGradient8515"/><linearGradient id="linearGradient8537" x1="216.442" x2="80.181" y1="209.026" y2="163.606" gradientUnits="userSpaceOnUse" xlink:href="#linearGradient8515"/></defs><metadata id="metadata7"/><g id="layer1" style="display:none"><g id="g7995" style="fill:#fff"><rect id="rect7977" width="221.02" height="13.261" x="66.306" y="305.846" style="fill:#fff;fill-opacity:1;fill-rule:nonzero;stroke:#000;stroke-width:8;stroke-linecap:butt;stroke-linejoin:miter;stroke-miterlimit:4;stroke-dasharray:none;stroke-opacity:1;display:inline"/><rect id="rect7979" width="212.179" height="17.682" x="70.726" y="287.744" style="fill:#fff;fill-opacity:1;fill-rule:nonzero;stroke:#000;stroke-width:8;stroke-linecap:butt;stroke-linejoin:round;stroke-miterlimit:4;stroke-dasharray:none;stroke-opacity:1;display:inline"/><path id="path7981" d="M 274.0648,286.90359 C 185.6568,286.90359 176.816,286.90359 79.567195,286.90359 C 92.828395,273.64239 110.51,255.96079 106.0896,238.27919 C 159.1344,238.27919 119.3508,238.27919 176.816,238.27919 C 234.2812,238.27919 225.4404,238.27919 247.5424,238.27919 C 243.122,255.96079 260.8036,273.64239 274.0648,286.90359 z" style="fill:#fff;fill-opacity:1;fill-rule:evenodd;stroke:#000;stroke-width:8;stroke-linecap:butt;stroke-linejoin:miter;stroke-miterlimit:4;stroke-dasharray:none;stroke-opacity:1;display:inline"/><path id="path7983" d="M 103.90377,236.17719 C 249.38063,236.17719 249.38063,236.17719 249.38063,236.17719" style="fill:#fff;fill-opacity:1;fill-rule:evenodd;stroke:#000;stroke-width:7.2564826;stroke-linecap:round;stroke-linejoin:miter;stroke-miterlimit:4;stroke-dasharray:none;stroke-opacity:1;display:inline"/><path id="path7985" d="M 198.918,55.253006 A 11.051,11.051 0 1 1 176.816,55.253006 A 11.051,11.051 0 1 1 198.918,55.253006 z" transform="translate(-11.051004,-8.8408007)" style="fill:#fff;fill-opacity:1;fill-rule:nonzero;stroke:#000;stroke-width:8;stroke-linejoin:miter;stroke-miterlimit:4;stroke-dasharray:none;stroke-opacity:1;display:inline"/><path id="path7987" d="M 181.2364,62.304005 C 181.2364,62.304005 187.76674,68.413948 212.1792,92.826405 C 234.2812,114.9284 234.2812,137.0304 234.2812,154.712 C 234.2812,167.9732 229.8608,181.2344 221.02,198.916 C 203.3384,198.91601 150.2936,198.91601 132.612,198.916 C 123.7712,181.2344 119.3508,167.9732 119.3508,152.712 C 119.3508,137.0304 117.73281,117.31108 139.4528,95.246805 C 165.9752,68.304005 172.3956,62.304005 172.3956,62.304005 L 181.2364,62.304005 z" style="fill:#fff;fill-opacity:1;fill-rule:evenodd;stroke:#000;stroke-width:8;stroke-linecap:butt;stroke-linejoin:miter;stroke-miterlimit:4;stroke-dasharray:none;stroke-opacity:1;display:inline"/><path id="path7989" d="M 235.122,235.4384 C 213.02,235.4384 198.918,235.4384 176.816,235.4384 C 154.714,235.4384 141.4528,236.6996 119.3508,236.6996 C 137.0324,219.018 132.612,212.1772 132.612,198.916 C 150.2936,198.916 154.715,198.917 176.816,198.916 C 198.919,198.915 203.3384,198.916 221.02,198.916 C 221.02,212.1772 217.4404,217.7568 235.122,235.4384 z" style="fill:#fff;fill-opacity:1;fill-rule:evenodd;stroke:#000;stroke-width:8;stroke-linecap:butt;stroke-linejoin:miter;stroke-miterlimit:4;stroke-dasharray:none;stroke-opacity:1;display:inline"/><path id="path7991" d="M 133.36855,198.814 C 220.12582,198.814 220.12582,198.814 220.12582,198.814" style="fill:#fff;fill-opacity:1;fill-rule:evenodd;stroke:#000;stroke-width:6.4707036;stroke-linecap:round;stroke-linejoin:miter;stroke-miterlimit:4;stroke-dasharray:none;stroke-opacity:1;display:inline"/><path id="path7993" d="M 139.98939,97.04459 C 176.89372,136.44754 176.89372,136.44754 176.89372,136.44754" style="fill:#fff;fill-opacity:1;fill-rule:evenodd;stroke:#000;stroke-width:8;stroke-linecap:round;stroke-linejoin:miter;stroke-miterlimit:4;stroke-dasharray:none;stroke-opacity:1;display:inline"/></g></g><g id="layer2" style="display:inline"><rect style="fill:url(#linearGradient8521);fill-opacity:1;fill-rule:nonzero;stroke:#000;stroke-width:8;stroke-linecap:butt;stroke-linejoin:miter;stroke-miterlimit:4;stroke-dasharray:none;stroke-opacity:1;display:inline" id="rect3284" width="221.02" height="13.261" x="66.306" y="305.846"/><rect style="fill:url(#linearGradient8523);fill-opacity:1;fill-rule:nonzero;stroke:#000;stroke-width:8;stroke-linecap:butt;stroke-linejoin:round;stroke-miterlimit:4;stroke-dasharray:none;stroke-opacity:1;display:inline" id="rect3288" width="212.179" height="17.682" x="70.726" y="287.744"/><path style="fill:url(#linearGradient8525);fill-opacity:1;fill-rule:evenodd;stroke:#000;stroke-width:8;stroke-linecap:butt;stroke-linejoin:miter;stroke-miterlimit:4;stroke-dasharray:none;stroke-opacity:1;display:inline" id="path2481" d="M 274.0648,286.90359 C 185.6568,286.90359 176.816,286.90359 79.567195,286.90359 C 92.828395,273.64239 110.51,255.96079 106.0896,238.27919 C 159.1344,238.27919 119.3508,238.27919 176.816,238.27919 C 234.2812,238.27919 225.4404,238.27919 247.5424,238.27919 C 243.122,255.96079 260.8036,273.64239 274.0648,286.90359 z"/><path style="fill:url(#linearGradient8527);fill-opacity:1;fill-rule:evenodd;stroke:#000;stroke-width:7.2564826;stroke-linecap:round;stroke-linejoin:miter;stroke-miterlimit:4;stroke-dasharray:none;stroke-opacity:1;display:inline" id="path3253" d="M 103.90377,236.17719 C 249.38063,236.17719 249.38063,236.17719 249.38063,236.17719"/><path style="fill:url(#linearGradient8529);fill-opacity:1;fill-rule:nonzero;stroke:#000;stroke-width:8;stroke-linejoin:miter;stroke-miterlimit:4;stroke-dasharray:none;stroke-opacity:1" id="path7780" d="M 198.918,55.253006 A 11.051,11.051 0 1 1 176.816,55.253006 A 11.051,11.051 0 1 1 198.918,55.253006 z" transform="translate(-11.051004,-8.8408007)"/><path style="fill:url(#linearGradient8531);fill-opacity:1;fill-rule:evenodd;stroke:#000;stroke-width:8;stroke-linecap:butt;stroke-linejoin:miter;stroke-miterlimit:4;stroke-dasharray:none;stroke-opacity:1" id="path8299" d="M 181.2364,62.304005 C 181.2364,62.304005 187.76674,68.413948 212.1792,92.826405 C 234.2812,114.9284 234.2812,137.0304 234.2812,154.712 C 234.2812,167.9732 229.8608,181.2344 221.02,198.916 C 203.3384,198.91601 150.2936,198.91601 132.612,198.916 C 123.7712,181.2344 119.3508,167.9732 119.3508,152.712 C 119.3508,137.0304 117.73281,117.31108 139.4528,95.246805 C 165.9752,68.304005 172.3956,62.304005 172.3956,62.304005 L 181.2364,62.304005 z"/><path style="fill:url(#linearGradient8533);fill-opacity:1;fill-rule:evenodd;stroke:#000;stroke-width:8;stroke-linecap:butt;stroke-linejoin:miter;stroke-miterlimit:4;stroke-dasharray:none;stroke-opacity:1" id="path8301" d="M 235.122,235.4384 C 213.02,235.4384 198.918,235.4384 176.816,235.4384 C 154.714,235.4384 141.4528,236.6996 119.3508,236.6996 C 137.0324,219.018 132.612,212.1772 132.612,198.916 C 150.2936,198.916 154.715,198.917 176.816,198.916 C 198.919,198.915 203.3384,198.916 221.02,198.916 C 221.02,212.1772 217.4404,217.7568 235.122,235.4384 z"/><path style="fill:url(#linearGradient8535);fill-opacity:1;fill-rule:evenodd;stroke:#000;stroke-width:6.4707036000000002;stroke-linecap:round;stroke-linejoin:miter;stroke-miterlimit:4;stroke-dasharray:none;stroke-opacity:1" id="path8305" d="M 133.36855,198.814 C 220.12582,198.814 220.12582,198.814 220.12582,198.814"/><path style="fill:url(#linearGradient8537);fill-opacity:1;fill-rule:evenodd;stroke:#000;stroke-width:8;stroke-linecap:round;stroke-linejoin:miter;stroke-miterlimit:4;stroke-dasharray:none;stroke-opacity:1" id="path8309" d="M 139.98939,97.04459 C 176.89372,136.44754 176.89372,136.44754 176.89372,136.44754"/></g></svg>