<svg xmlns="http://www.w3.org/2000/svg" xmlns:svg="http://www.w3.org/2000/svg" xmlns:xlink="http://www.w3.org/1999/xlink" id="svg2" width="353.63" height="353.63" version="1.0"><defs id="defs4"><linearGradient id="linearGradient10492"><stop style="stop-color:#ffffe6;stop-opacity:1" id="stop10494" offset="0"/><stop style="stop-color:#ffffe6;stop-opacity:0" id="stop10496" offset="1"/></linearGradient><linearGradient id="linearGradient10484"><stop style="stop-color:#ffffe6;stop-opacity:1" id="stop10486" offset="0"/><stop style="stop-color:#ffffe6;stop-opacity:0" id="stop10488" offset="1"/></linearGradient><linearGradient id="linearGradient10476"><stop style="stop-color:#ffffe6;stop-opacity:1" id="stop10478" offset="0"/><stop style="stop-color:#ffffe6;stop-opacity:0" id="stop10480" offset="1"/></linearGradient><linearGradient id="linearGradient9614"><stop style="stop-color:#d7a127;stop-opacity:.6796875" id="stop9616" offset="0"/><stop style="stop-color:#ffffe6;stop-opacity:0" id="stop9618" offset="1"/></linearGradient><linearGradient id="linearGradient9604"><stop style="stop-color:#d7a127;stop-opacity:.6796875" id="stop9606" offset="0"/><stop style="stop-color:#ffffe6;stop-opacity:0" id="stop9608" offset="1"/></linearGradient><linearGradient id="linearGradient9596"><stop style="stop-color:#d7a127;stop-opacity:.6796875" id="stop9598" offset="0"/><stop style="stop-color:#ffffe6;stop-opacity:0" id="stop9600" offset="1"/></linearGradient><linearGradient id="linearGradient9588"><stop style="stop-color:#d7a127;stop-opacity:.6796875" id="stop9590" offset="0"/><stop style="stop-color:#ffffe6;stop-opacity:0" id="stop9592" offset="1"/></linearGradient><linearGradient id="linearGradient9580"><stop style="stop-color:#d7a127;stop-opacity:.67843139" id="stop9582" offset="0"/><stop style="stop-color:#ffffe6;stop-opacity:0" id="stop9584" offset="1"/></linearGradient><linearGradient id="linearGradient3645"><stop style="stop-color:#ffff23;stop-opacity:.49803922" id="stop3649" offset="0"/><stop id="stop3651" offset="1" style="stop-color:#ffff23;stop-opacity:0"/></linearGradient><linearGradient id="linearGradient3635"><stop style="stop-color:#ffff23;stop-opacity:1" id="stop3637" offset="0"/><stop id="stop3643" offset=".5" style="stop-color:#ffff23;stop-opacity:.49803922"/><stop style="stop-color:#ffff23;stop-opacity:0" id="stop3639" offset="1"/></linearGradient><linearGradient id="linearGradient9586" x1="196.976" x2="133.017" y1="102.16" y2="71.567" gradientUnits="userSpaceOnUse" xlink:href="#linearGradient9580"/><linearGradient id="linearGradient9594" x1="157.581" x2="40.11" y1="183.535" y2="133.48" gradientUnits="userSpaceOnUse" xlink:href="#linearGradient9588"/><linearGradient id="linearGradient9602" x1="284.109" x2="190.024" y1="172.875" y2="103.818" gradientUnits="userSpaceOnUse" xlink:href="#linearGradient9596"/><linearGradient id="linearGradient9610" x1="236.371" x2="21.32" y1="289.207" y2="225.248" gradientUnits="userSpaceOnUse" xlink:href="#linearGradient9604"/><linearGradient id="linearGradient9612" x1="236.371" x2="21.32" y1="289.207" y2="225.248" gradientUnits="userSpaceOnUse" xlink:href="#linearGradient9604"/><linearGradient id="linearGradient9620" x1="215.978" x2="97.329" y1="323.108" y2="295.696" gradientUnits="userSpaceOnUse" xlink:href="#linearGradient9614"/><linearGradient id="linearGradient10482" x1="100.754" x2="252.68" y1="236.177" y2="236.177" gradientUnits="userSpaceOnUse" xlink:href="#linearGradient10476"/><linearGradient id="linearGradient10490" x1="172.815" x2="180.816" y1="53.623" y2="53.623" gradientUnits="userSpaceOnUse" xlink:href="#linearGradient10484"/><linearGradient id="linearGradient10498" x1="155.134" x2="198.497" y1="48.622" y2="48.622" gradientUnits="userSpaceOnUse" xlink:href="#linearGradient10492"/></defs><metadata id="metadata7"/><g id="layer1" style="display:none"><g id="g9044"><rect id="rect9022" width="221.02" height="13.261" x="66.306" y="305.846" style="fill:#ffffe6;fill-opacity:1;fill-rule:nonzero;stroke:#000;stroke-width:8;stroke-linecap:butt;stroke-linejoin:miter;stroke-miterlimit:4;stroke-dasharray:none;stroke-opacity:1;display:inline"/><rect id="rect9024" width="212.179" height="17.682" x="70.726" y="287.744" style="fill:#ffffe6;fill-opacity:1;fill-rule:nonzero;stroke:#000;stroke-width:8;stroke-linecap:butt;stroke-linejoin:round;stroke-miterlimit:4;stroke-dasharray:none;stroke-opacity:1;display:inline"/><path id="path9026" d="M 274.0648,286.90359 C 185.6568,286.90359 176.816,286.90359 79.567195,286.90359 C 92.828395,273.64239 110.51,255.96079 106.0896,238.27919 C 159.1344,238.27919 119.3508,238.27919 176.816,238.27919 C 234.2812,238.27919 225.4404,238.27919 247.5424,238.27919 C 243.122,255.96079 260.8036,273.64239 274.0648,286.90359 z" style="fill:#ffffe6;fill-opacity:1;fill-rule:evenodd;stroke:#000;stroke-width:8;stroke-linecap:butt;stroke-linejoin:miter;stroke-miterlimit:4;stroke-dasharray:none;stroke-opacity:1;display:inline"/><path id="path9028" d="M 104.37233,236.17719 C 249.06173,236.17719 249.06173,236.17719 249.06173,236.17719" style="fill:#ffffe6;fill-opacity:1;fill-rule:evenodd;stroke:#000;stroke-width:7.23681688;stroke-linecap:round;stroke-linejoin:miter;stroke-miterlimit:4;stroke-dasharray:none;stroke-opacity:1;display:inline"/><path id="path9030" d="M 176.816,231.018 C 176.816,195.6548 176.816,160.2916 185.6568,142.61 C 194.4976,124.9284 216.5996,93.985605 256.3832,93.985605 C 280.79566,93.985605 318.2688,111.6672 318.2688,151.4508 C 318.2688,162.5018 316.0586,172.4477 311.08565,181.84105 C 306.1127,191.2344 278.4852,217.7568 243.122,226.5976 C 223.94361,231.3922 176.816,231.018 176.816,231.018 z" style="fill:#ffffe6;fill-opacity:1;fill-rule:evenodd;stroke:#000;stroke-width:8;stroke-linecap:butt;stroke-linejoin:miter;stroke-miterlimit:4;stroke-dasharray:none;stroke-opacity:1;display:inline"/><path id="path9032" d="M 176.815,30.941005 C 176.816,66.304005 176.816,76.304005 176.816,76.304005" style="fill:#ffffe6;fill-opacity:1;fill-rule:evenodd;stroke:#000;stroke-width:8;stroke-linecap:round;stroke-linejoin:miter;stroke-miterlimit:4;stroke-dasharray:none;stroke-opacity:1;display:inline"/><path id="path9034" d="M 194.4974,48.621405 C 159.1344,48.622405 159.1344,48.622405 159.1344,48.622405" style="fill:#ffffe6;fill-opacity:1;fill-rule:evenodd;stroke:#000;stroke-width:8;stroke-linecap:round;stroke-linejoin:miter;stroke-miterlimit:4;stroke-dasharray:none;stroke-opacity:1;display:inline"/><g style="fill:#ffffe6;fill-opacity:1;display:inline" id="g9036" transform="translate(0,10)"><path style="fill:#ffffe6;fill-opacity:1;fill-rule:evenodd;stroke:#000;stroke-width:8;stroke-linecap:butt;stroke-linejoin:miter;stroke-miterlimit:4;stroke-dasharray:none;stroke-opacity:1" id="path9038" d="M 176.816,66.304005 C 194.4976,66.304005 198.918,70.007073 198.918,83.985605 C 198.918,97.246805 196.32859,111.26643 190.0772,123.7692 C 185.6568,132.61 185.6568,132.61 176.816,154.712"/><path style="fill:#ffffe6;fill-opacity:1;fill-rule:evenodd;stroke:#000;stroke-width:8.10000038;stroke-linecap:butt;stroke-linejoin:miter;stroke-miterlimit:4;stroke-dasharray:none;stroke-opacity:1;display:inline" id="path9040" d="M 176.51,65.883605 C 158.8284,65.883605 154.408,69.586675 154.408,83.565205 C 154.408,96.826405 156.99741,110.84603 163.2488,123.3488 C 167.6692,132.1896 167.6692,132.1896 176.51,154.2916"/></g><path id="path9042" d="M 176.2936,231.018 C 176.2936,195.6548 176.2936,160.29161 167.4528,142.61001 C 158.612,124.92841 136.51,93.985614 96.7264,93.985614 C 72.31394,93.985614 34.8408,111.66721 34.8408,151.45081 C 34.8408,162.50181 37.051,172.44771 42.02395,181.84105 C 46.9969,191.2344 74.6244,217.7568 109.9876,226.5976 C 129.16599,231.3922 176.2936,231.018 176.2936,231.018 z" style="fill:#ffffe6;fill-opacity:1;fill-rule:evenodd;stroke:#000;stroke-width:8;stroke-linecap:butt;stroke-linejoin:miter;stroke-miterlimit:4;stroke-dasharray:none;stroke-opacity:1;display:inline"/></g></g><g id="layer2" style="display:inline"><rect style="fill:url(#linearGradient9620);fill-opacity:1;fill-rule:nonzero;stroke:#000;stroke-width:8;stroke-linecap:butt;stroke-linejoin:miter;stroke-miterlimit:4;stroke-dasharray:none;stroke-opacity:1;display:inline" id="rect3284" width="221.02" height="13.261" x="66.306" y="305.846"/><rect style="fill:url(#linearGradient9610);fill-opacity:1;fill-rule:nonzero;stroke:#000;stroke-width:8;stroke-linecap:butt;stroke-linejoin:round;stroke-miterlimit:4;stroke-dasharray:none;stroke-opacity:1;display:inline" id="rect3288" width="212.179" height="17.682" x="70.726" y="287.744"/><path style="fill:url(#linearGradient9612);fill-opacity:1;fill-rule:evenodd;stroke:#000;stroke-width:8;stroke-linecap:butt;stroke-linejoin:miter;stroke-miterlimit:4;stroke-dasharray:none;stroke-opacity:1;display:inline" id="path2481" d="M 274.0648,286.90359 C 185.6568,286.90359 176.816,286.90359 79.567195,286.90359 C 92.828395,273.64239 110.51,255.96079 106.0896,238.27919 C 159.1344,238.27919 119.3508,238.27919 176.816,238.27919 C 234.2812,238.27919 225.4404,238.27919 247.5424,238.27919 C 243.122,255.96079 260.8036,273.64239 274.0648,286.90359 z"/><path style="fill:url(#linearGradient10482);fill-opacity:1;fill-rule:evenodd;stroke:#000;stroke-width:7.2368168800000001;stroke-linecap:round;stroke-linejoin:miter;stroke-miterlimit:4;stroke-dasharray:none;stroke-opacity:1;display:inline" id="path3253" d="M 104.37233,236.17719 C 249.06173,236.17719 249.06173,236.17719 249.06173,236.17719"/><path style="fill:url(#linearGradient9602);fill-opacity:1;fill-rule:evenodd;stroke:#000;stroke-width:8;stroke-linecap:butt;stroke-linejoin:miter;stroke-miterlimit:4;stroke-dasharray:none;stroke-opacity:1" id="path3366" d="M 176.816,231.018 C 176.816,195.6548 176.816,160.2916 185.6568,142.61 C 194.4976,124.9284 216.5996,93.985605 256.3832,93.985605 C 280.79566,93.985605 318.2688,111.6672 318.2688,151.4508 C 318.2688,162.5018 316.0586,172.4477 311.08565,181.84105 C 306.1127,191.2344 278.4852,217.7568 243.122,226.5976 C 223.94361,231.3922 176.816,231.018 176.816,231.018 z"/><path style="fill:url(#linearGradient10490);fill-opacity:1;fill-rule:evenodd;stroke:#000;stroke-width:8;stroke-linecap:round;stroke-linejoin:miter;stroke-miterlimit:4;stroke-dasharray:none;stroke-opacity:1" id="path3370" d="M 176.815,30.941005 C 176.816,66.304005 176.816,76.304005 176.816,76.304005"/><path style="fill:url(#linearGradient10498);fill-opacity:1;fill-rule:evenodd;stroke:#000;stroke-width:8;stroke-linecap:round;stroke-linejoin:miter;stroke-miterlimit:4;stroke-dasharray:none;stroke-opacity:1;display:inline" id="path3372" d="M 194.4974,48.621405 C 159.1344,48.622405 159.1344,48.622405 159.1344,48.622405"/><g id="g3717" transform="translate(0,10)" style="fill:url(#linearGradient9586);fill-opacity:1"><path id="path3396" d="M 176.816,66.304005 C 194.4976,66.304005 198.918,70.007073 198.918,83.985605 C 198.918,97.246805 196.32859,111.26643 190.0772,123.7692 C 185.6568,132.61 185.6568,132.61 176.816,154.712" style="fill:url(#linearGradient9586);fill-opacity:1;fill-rule:evenodd;stroke:#000;stroke-width:8;stroke-linecap:butt;stroke-linejoin:miter;stroke-miterlimit:4;stroke-dasharray:none;stroke-opacity:1"/><path id="path3398" d="M 176.51,65.883605 C 158.8284,65.883605 154.408,69.586675 154.408,83.565205 C 154.408,96.826405 156.99741,110.84603 163.2488,123.3488 C 167.6692,132.1896 167.6692,132.1896 176.51,154.2916" style="fill:url(#linearGradient9586);fill-opacity:1;fill-rule:evenodd;stroke:#000;stroke-width:8.1000003800000009;stroke-linecap:butt;stroke-linejoin:miter;stroke-miterlimit:4;stroke-dasharray:none;stroke-opacity:1;display:inline"/></g><path style="fill:url(#linearGradient9594);fill-opacity:1;fill-rule:evenodd;stroke:#000;stroke-width:8;stroke-linecap:butt;stroke-linejoin:miter;stroke-miterlimit:4;stroke-dasharray:none;stroke-opacity:1;display:inline" id="path3621" d="M 176.2936,231.018 C 176.2936,195.6548 176.2936,160.29161 167.4528,142.61001 C 158.612,124.92841 136.51,93.985614 96.7264,93.985614 C 72.31394,93.985614 34.8408,111.66721 34.8408,151.45081 C 34.8408,162.50181 37.051,172.44771 42.02395,181.84105 C 46.9969,191.2344 74.6244,217.7568 109.9876,226.5976 C 129.16599,231.3922 176.2936,231.018 176.2936,231.018 z"/></g></svg>