<svg xmlns="http://www.w3.org/2000/svg" xmlns:svg="http://www.w3.org/2000/svg" xmlns:xlink="http://www.w3.org/1999/xlink" id="svg2" width="353.63" height="353.63" version="1.0"><defs id="defs4"><linearGradient id="linearGradient13432"><stop style="stop-color:#d7a127;stop-opacity:.6796875" id="stop13434" offset="0"/><stop style="stop-color:#fff;stop-opacity:0" id="stop13436" offset="1"/></linearGradient><linearGradient id="linearGradient3709"><stop style="stop-color:#ffff82;stop-opacity:1" id="stop3711" offset="0"/><stop style="stop-color:#ffff82;stop-opacity:0" id="stop3713" offset="1"/></linearGradient><linearGradient id="linearGradient3693"><stop style="stop-color:#ffff82;stop-opacity:1" id="stop3695" offset="0"/><stop style="stop-color:#ffff82;stop-opacity:0" id="stop3697" offset="1"/></linearGradient><linearGradient id="linearGradient3645"><stop style="stop-color:#ffff23;stop-opacity:.49803922" id="stop3649" offset="0"/><stop id="stop3651" offset="1" style="stop-color:#ffff23;stop-opacity:0"/></linearGradient><linearGradient id="linearGradient3635"><stop style="stop-color:#ffff23;stop-opacity:1" id="stop3637" offset="0"/><stop id="stop3643" offset=".5" style="stop-color:#ffff23;stop-opacity:.49803922"/><stop style="stop-color:#ffff23;stop-opacity:0" id="stop3639" offset="1"/></linearGradient><linearGradient id="linearGradient3699" x1="265.224" x2="190.077" y1="154.712" y2="101.667" gradientTransform="translate(0,10)" gradientUnits="userSpaceOnUse" xlink:href="#linearGradient3693"/><linearGradient id="linearGradient3715" x1="132.612" x2="57.465" y1="154.712" y2="101.667" gradientTransform="translate(0,10)" gradientUnits="userSpaceOnUse" xlink:href="#linearGradient3709"/><linearGradient id="linearGradient3721" x1="212.179" x2="145.873" y1="114.928" y2="79.565" gradientUnits="userSpaceOnUse" xlink:href="#linearGradient3693"/><linearGradient id="linearGradient3725" x1="212.179" x2="141.453" y1="114.928" y2="75.145" gradientUnits="userSpaceOnUse" xlink:href="#linearGradient3693"/><linearGradient id="linearGradient3939" x1="212.179" x2="145.873" y1="114.928" y2="79.565" gradientUnits="userSpaceOnUse" xlink:href="#linearGradient3693"/><linearGradient id="linearGradient13438" x1="191.878" x2="68.594" y1="199.757" y2="168.704" gradientUnits="userSpaceOnUse" xlink:href="#linearGradient13432"/></defs><metadata id="metadata7"/><g id="layer1" style="display:none"><g id="g12899" style="fill:#fff"><rect id="rect12887" width="221.02" height="13.261" x="66.306" y="305.846" style="fill:#fff;fill-opacity:1;fill-rule:nonzero;stroke:#000;stroke-width:8;stroke-linecap:butt;stroke-linejoin:miter;stroke-miterlimit:4;stroke-dasharray:none;stroke-opacity:1;display:inline"/><rect id="rect12889" width="212.179" height="17.682" x="70.726" y="287.744" style="fill:#fff;fill-opacity:1;fill-rule:nonzero;stroke:#000;stroke-width:8;stroke-linecap:butt;stroke-linejoin:round;stroke-miterlimit:4;stroke-dasharray:none;stroke-opacity:1;display:inline"/><path id="path12891" d="M 274.0648,286.90359 C 185.6568,286.90359 176.816,286.90359 79.567195,286.90359 C 92.828395,273.64239 110.51,255.96079 106.0896,238.27919 C 159.1344,238.27919 119.3508,238.27919 176.816,238.27919 C 234.2812,238.27919 225.4404,238.27919 247.5424,238.27919 C 243.122,255.96079 260.8036,273.64239 274.0648,286.90359 z" style="fill:#fff;fill-opacity:1;fill-rule:evenodd;stroke:#000;stroke-width:8;stroke-linecap:butt;stroke-linejoin:miter;stroke-miterlimit:4;stroke-dasharray:none;stroke-opacity:1;display:inline"/><path id="path12893" d="M 104.34883,236.17719 C 249.05143,236.17719 249.05143,236.17719 249.05143,236.17719" style="fill:#fff;fill-opacity:1;fill-rule:evenodd;stroke:#000;stroke-width:7.23714638;stroke-linecap:round;stroke-linejoin:miter;stroke-miterlimit:4;stroke-dasharray:none;stroke-opacity:1;display:inline"/><path id="path12895" d="M 265.224,97.144805 C 225.4404,97.144805 137.0324,97.144805 88.408,97.144805 C 88.408,52.94081 88.408,66.202005 88.408,52.940805 C 106.0896,52.940805 110.51,52.940805 123.7712,52.940805 C 123.7712,66.202005 123.7712,57.361205 123.7712,75.042805 C 141.4528,75.042805 150.2936,75.042805 159.1344,75.042805 C 159.1344,57.361205 159.98626,66.201805 159.1344,52.940805 C 185.6568,52.940805 167.9752,52.940805 194.4976,52.940805 C 194.4976,79.463205 194.4966,59.284718 194.4976,75.042805 C 212.1792,75.042805 212.1792,75.042805 229.8608,75.042805 C 229.8608,52.940805 229.8608,66.202005 229.8608,52.940805 C 260.8036,52.940805 225.4404,52.940805 265.224,52.940805 C 265.224,92.724405 265.224,66.202005 265.224,97.144805 z" style="fill:#fff;fill-opacity:1;fill-rule:evenodd;stroke:#000;stroke-width:8;stroke-linecap:butt;stroke-linejoin:miter;stroke-miterlimit:4;stroke-dasharray:none;stroke-opacity:1;display:inline"/><rect id="rect12897" width="132.404" height="138.027" x="110.574" y="97.628" style="fill:#fff;fill-opacity:1;fill-rule:nonzero;stroke:#000;stroke-width:8.59645653;stroke-linejoin:miter;stroke-miterlimit:4;stroke-dasharray:none;stroke-opacity:1;display:inline"/></g></g><g id="layer2" style="display:inline"><g id="g13416" style="fill-opacity:1;fill:url(#linearGradient13438)"><rect id="rect3284" width="221.02" height="13.261" x="66.306" y="305.846" style="fill:url(#linearGradient13438);fill-opacity:1;fill-rule:nonzero;stroke:#000;stroke-width:8;stroke-linecap:butt;stroke-linejoin:miter;stroke-miterlimit:4;stroke-dasharray:none;stroke-opacity:1;display:inline"/><rect id="rect3288" width="212.179" height="17.682" x="70.726" y="287.744" style="fill:url(#linearGradient13438);fill-opacity:1;fill-rule:nonzero;stroke:#000;stroke-width:8;stroke-linecap:butt;stroke-linejoin:round;stroke-miterlimit:4;stroke-dasharray:none;stroke-opacity:1;display:inline"/><path id="path2481" d="M 274.0648,286.90359 C 185.6568,286.90359 176.816,286.90359 79.567195,286.90359 C 92.828395,273.64239 110.51,255.96079 106.0896,238.27919 C 159.1344,238.27919 119.3508,238.27919 176.816,238.27919 C 234.2812,238.27919 225.4404,238.27919 247.5424,238.27919 C 243.122,255.96079 260.8036,273.64239 274.0648,286.90359 z" style="fill:url(#linearGradient13438);fill-opacity:1;fill-rule:evenodd;stroke:#000;stroke-width:8;stroke-linecap:butt;stroke-linejoin:miter;stroke-miterlimit:4;stroke-dasharray:none;stroke-opacity:1;display:inline"/><path id="path3253" d="M 104.34883,236.17719 C 249.05143,236.17719 249.05143,236.17719 249.05143,236.17719" style="fill:url(#linearGradient13438);fill-opacity:1;fill-rule:evenodd;stroke:#000;stroke-width:7.2371463800000004;stroke-linecap:round;stroke-linejoin:miter;stroke-miterlimit:4;stroke-dasharray:none;stroke-opacity:1;display:inline"/><path id="path6992" d="M 265.224,97.144805 C 225.4404,97.144805 137.0324,97.144805 88.408,97.144805 C 88.408,52.94081 88.408,66.202005 88.408,52.940805 C 106.0896,52.940805 110.51,52.940805 123.7712,52.940805 C 123.7712,66.202005 123.7712,57.361205 123.7712,75.042805 C 141.4528,75.042805 150.2936,75.042805 159.1344,75.042805 C 159.1344,57.361205 159.98626,66.201805 159.1344,52.940805 C 185.6568,52.940805 167.9752,52.940805 194.4976,52.940805 C 194.4976,79.463205 194.4966,59.284718 194.4976,75.042805 C 212.1792,75.042805 212.1792,75.042805 229.8608,75.042805 C 229.8608,52.940805 229.8608,66.202005 229.8608,52.940805 C 260.8036,52.940805 225.4404,52.940805 265.224,52.940805 C 265.224,92.724405 265.224,66.202005 265.224,97.144805 z" style="fill:url(#linearGradient13438);fill-opacity:1;fill-rule:evenodd;stroke:#000;stroke-width:8;stroke-linecap:butt;stroke-linejoin:miter;stroke-miterlimit:4;stroke-dasharray:none;stroke-opacity:1"/><rect id="rect6994" width="132.404" height="138.027" x="110.574" y="97.628" style="fill:url(#linearGradient13438);fill-opacity:1;fill-rule:nonzero;stroke:#000;stroke-width:8.5964565299999993;stroke-linejoin:miter;stroke-miterlimit:4;stroke-dasharray:none;stroke-opacity:1"/></g></g></svg>