<svg xmlns="http://www.w3.org/2000/svg" xmlns:svg="http://www.w3.org/2000/svg" xmlns:xlink="http://www.w3.org/1999/xlink" id="svg2" width="16" height="16" version="1.0"><defs id="defs4"><linearGradient id="linearGradient2521" x1="53.182" x2="38.743" y1="15.226" y2=".786" gradientUnits="userSpaceOnUse" xlink:href="#linearGradient3344"/><linearGradient id="linearGradient2523" x1="53.714" x2="39.274" y1="32.726" y2="18.286" gradientUnits="userSpaceOnUse" xlink:href="#linearGradient3344"/><linearGradient id="linearGradient2519" x1="35.213" x2="20.774" y1="32.307" y2="17.868" gradientUnits="userSpaceOnUse" xlink:href="#linearGradient3344"/><linearGradient id="linearGradient4356"><stop style="stop-color:#fff;stop-opacity:1" id="stop4358" offset="0"/><stop id="stop4366" offset=".542" style="stop-color:#cecece;stop-opacity:.74901962"/><stop id="stop4364" offset=".634" style="stop-color:#959595;stop-opacity:.49803922"/><stop style="stop-color:#fff;stop-opacity:0" id="stop4360" offset="1"/></linearGradient><linearGradient id="linearGradient3344"><stop style="stop-color:#fff;stop-opacity:0" id="stop3346" offset="0"/><stop style="stop-color:#fff;stop-opacity:1" id="stop3348" offset="1"/></linearGradient><linearGradient id="linearGradient3324"><stop style="stop-color:#000;stop-opacity:0" id="stop3326" offset="0"/><stop style="stop-color:#fff;stop-opacity:1" id="stop3328" offset="1"/></linearGradient><linearGradient id="linearGradient3211"><stop style="stop-color:#babdb6;stop-opacity:1" id="stop3213" offset="0"/><stop id="stop3219" offset=".259" style="stop-color:#f2f2f1;stop-opacity:1"/><stop style="stop-color:#000;stop-opacity:1" id="stop3221" offset=".518"/><stop id="stop3223" offset=".759" style="stop-color:#f1f1f0;stop-opacity:1"/><stop style="stop-color:#babdb6;stop-opacity:1" id="stop3215" offset="1"/></linearGradient><linearGradient id="linearGradient2430"><stop style="stop-color:#d6d6d1;stop-opacity:1" id="stop2432" offset="0"/><stop style="stop-color:#eeeeec;stop-opacity:1" id="stop2434" offset="1"/></linearGradient><linearGradient id="linearGradient3350" x1="35.213" x2="20.774" y1="32.307" y2="17.868" gradientUnits="userSpaceOnUse" xlink:href="#linearGradient3344"/><linearGradient id="linearGradient3383" x1="35" x2="21" y1="15" y2="1" gradientUnits="userSpaceOnUse" xlink:href="#linearGradient3344"/><linearGradient id="linearGradient3398" x1="53.714" x2="39.274" y1="32.726" y2="18.286" gradientUnits="userSpaceOnUse" xlink:href="#linearGradient3344"/><clipPath id="clipPath6694" clipPathUnits="userSpaceOnUse"><path id="path6696" d="M 0,648.06 L 432,648.06 L 432,0.06 L 0,0.06 L 0,648.06 z"/></clipPath><clipPath id="clipPath6686" clipPathUnits="userSpaceOnUse"><path id="path6688" d="M 0,648 L 432,648 L 432,0 L 0,0 L 0,648 z"/></clipPath><clipPath id="clipPath6678" clipPathUnits="userSpaceOnUse"><path id="path6680" d="M 262.975,549.378 L 396,549.378 L 396,507.171 L 262.975,507.171 L 262.975,549.378 z" clip-rule="evenodd"/></clipPath><clipPath id="clipPath6668" clipPathUnits="userSpaceOnUse"><path id="path6670" d="M 0,648.06 L 432,648.06 L 432,0.06 L 0,0.06 L 0,648.06 z"/></clipPath><clipPath id="clipPath6662" clipPathUnits="userSpaceOnUse"><path id="path6664" d="M 0,648 L 432,648 L 432,0 L 0,0 L 0,648 z"/></clipPath><clipPath id="clipPath6656" clipPathUnits="userSpaceOnUse"><path id="path6658" d="M 262.975,549.378 L 396,549.378 L 396,507.171 L 262.975,507.171 L 262.975,549.378 z" clip-rule="evenodd"/></clipPath><clipPath id="clipPath6598" clipPathUnits="userSpaceOnUse"><path id="path6600" d="M 0,648.06 L 432,648.06 L 432,0.06 L 0,0.06 L 0,648.06 z"/></clipPath><clipPath id="clipPath6592" clipPathUnits="userSpaceOnUse"><path id="path6594" d="M 0,648 L 432,648 L 432,0 L 0,0 L 0,648 z"/></clipPath><clipPath id="clipPath6554" clipPathUnits="userSpaceOnUse"><path id="path6556" d="M 0,648.06 L 432,648.06 L 432,0.06 L 0,0.06 L 0,648.06 z"/></clipPath><clipPath id="clipPath6546" clipPathUnits="userSpaceOnUse"><path id="path6548" d="M 0,648 L 432,648 L 432,0 L 0,0 L 0,648 z"/></clipPath><clipPath id="clipPath6538" clipPathUnits="userSpaceOnUse"><path id="path6540" d="M 7.832,259.865 L 214.833,259.865 L 214.833,126 L 7.832,126 L 7.832,259.865 z" clip-rule="evenodd"/></clipPath><clipPath id="clipPath6528" clipPathUnits="userSpaceOnUse"><path id="path6530" d="M 0,648.06 L 432,648.06 L 432,0.06 L 0,0.06 L 0,648.06 z"/></clipPath><clipPath id="clipPath6522" clipPathUnits="userSpaceOnUse"><path id="path6524" d="M 0,648 L 432,648 L 432,0 L 0,0 L 0,648 z"/></clipPath><clipPath id="clipPath6516" clipPathUnits="userSpaceOnUse"><path id="path6518" d="M 7.832,259.865 L 214.833,259.865 L 214.833,126 L 7.832,126 L 7.832,259.865 z" clip-rule="evenodd"/></clipPath><linearGradient id="linearGradient4397" x1="53.182" x2="38.743" y1="15.226" y2=".786" gradientUnits="userSpaceOnUse" xlink:href="#linearGradient3344"/></defs><metadata id="metadata7"/><g id="layer1"><g id="g4431" transform="translate(-38.500195,-17.512296)"><rect id="rect3394" width="15.5" height="15.5" x="38.75" y="17.762" rx="2.128" ry="2.128" style="fill:#eeeeec;fill-opacity:1;stroke:#000;stroke-width:.50021976;stroke-linecap:butt;stroke-linejoin:miter;stroke-miterlimit:4;stroke-dasharray:none;stroke-dashoffset:0;stroke-opacity:1"/><rect style="fill:none;fill-opacity:1;stroke:url(#linearGradient2523);stroke-width:.45142728;stroke-linecap:butt;stroke-linejoin:miter;stroke-miterlimit:4;stroke-dasharray:none;stroke-dashoffset:0;stroke-opacity:1" id="rect3396" width="13.988" height="13.988" x="39.5" y="18.512" rx="1.92" ry="1.92"/><path id="rect3521" d="M 44.169173,21.050321 L 48.821113,21.050321 C 50.280034,21.050321 51.808098,22.608342 51.808098,23.994684 L 51.808098,25.844643 C 51.808098,27.230985 50.280034,28.612229 48.821113,28.612229 C 48.821113,28.612229 47.440352,28.552478 46.495143,28.877394 C 45.549934,29.20231 43.074524,31.279029 43.074524,31.279029 L 43.045338,28.397175 C 41.464491,28.210028 41.535741,26.537814 41.535741,25.844643 L 41.535741,23.994684 C 41.535741,22.608342 42.710251,21.050321 44.169173,21.050321 z" style="fill:none;fill-opacity:1;stroke:#000;stroke-width:.99999982;stroke-linecap:butt;stroke-linejoin:bevel;stroke-miterlimit:4;stroke-dashoffset:0;stroke-opacity:1"/><path id="path3528" d="M 43.718639,25.9 L 49.480648,25.9 L 49.480648,25.9" style="fill:none;fill-rule:evenodd;stroke:#000;stroke-width:.99999994px;stroke-linecap:butt;stroke-linejoin:miter;stroke-opacity:1"/><path style="fill:none;fill-rule:evenodd;stroke:#000;stroke-width:.99999994px;stroke-linecap:butt;stroke-linejoin:miter;stroke-opacity:1" id="path3530" d="M 43.737991,23.999692 L 49.5,23.999692 L 49.5,23.999692"/></g></g></svg>