<svg xmlns="http://www.w3.org/2000/svg" xmlns:svg="http://www.w3.org/2000/svg" xmlns:xlink="http://www.w3.org/1999/xlink" id="svg2" width="16" height="16" version="1.0"><defs id="defs4"><linearGradient id="linearGradient2521" x1="53.182" x2="38.743" y1="15.226" y2=".786" gradientUnits="userSpaceOnUse" xlink:href="#linearGradient3344"/><linearGradient id="linearGradient2523" x1="53.714" x2="39.274" y1="32.726" y2="18.286" gradientUnits="userSpaceOnUse" xlink:href="#linearGradient3344"/><linearGradient id="linearGradient4356"><stop style="stop-color:#fff;stop-opacity:1" id="stop4358" offset="0"/><stop id="stop4366" offset=".542" style="stop-color:#cecece;stop-opacity:.74901962"/><stop id="stop4364" offset=".634" style="stop-color:#959595;stop-opacity:.49803922"/><stop style="stop-color:#fff;stop-opacity:0" id="stop4360" offset="1"/></linearGradient><linearGradient id="linearGradient3344"><stop style="stop-color:#fff;stop-opacity:0" id="stop3346" offset="0"/><stop style="stop-color:#fff;stop-opacity:1" id="stop3348" offset="1"/></linearGradient><linearGradient id="linearGradient3324"><stop style="stop-color:#000;stop-opacity:0" id="stop3326" offset="0"/><stop style="stop-color:#fff;stop-opacity:1" id="stop3328" offset="1"/></linearGradient><linearGradient id="linearGradient3211"><stop style="stop-color:#babdb6;stop-opacity:1" id="stop3213" offset="0"/><stop id="stop3219" offset=".259" style="stop-color:#f2f2f1;stop-opacity:1"/><stop style="stop-color:#000;stop-opacity:1" id="stop3221" offset=".518"/><stop id="stop3223" offset=".759" style="stop-color:#f1f1f0;stop-opacity:1"/><stop style="stop-color:#babdb6;stop-opacity:1" id="stop3215" offset="1"/></linearGradient><linearGradient id="linearGradient2430"><stop style="stop-color:#d6d6d1;stop-opacity:1" id="stop2432" offset="0"/><stop style="stop-color:#eeeeec;stop-opacity:1" id="stop2434" offset="1"/></linearGradient><linearGradient id="linearGradient3350" x1="35.213" x2="20.774" y1="32.307" y2="17.868" gradientUnits="userSpaceOnUse" xlink:href="#linearGradient3344"/><linearGradient id="linearGradient3383" x1="35" x2="21" y1="15" y2="1" gradientUnits="userSpaceOnUse" xlink:href="#linearGradient3344"/><linearGradient id="linearGradient3398" x1="53.714" x2="39.274" y1="32.726" y2="18.286" gradientUnits="userSpaceOnUse" xlink:href="#linearGradient3344"/><clipPath id="clipPath6694" clipPathUnits="userSpaceOnUse"><path id="path6696" d="M 0,648.06 L 432,648.06 L 432,0.06 L 0,0.06 L 0,648.06 z"/></clipPath><clipPath id="clipPath6686" clipPathUnits="userSpaceOnUse"><path id="path6688" d="M 0,648 L 432,648 L 432,0 L 0,0 L 0,648 z"/></clipPath><clipPath id="clipPath6678" clipPathUnits="userSpaceOnUse"><path id="path6680" d="M 262.975,549.378 L 396,549.378 L 396,507.171 L 262.975,507.171 L 262.975,549.378 z" clip-rule="evenodd"/></clipPath><clipPath id="clipPath6668" clipPathUnits="userSpaceOnUse"><path id="path6670" d="M 0,648.06 L 432,648.06 L 432,0.06 L 0,0.06 L 0,648.06 z"/></clipPath><clipPath id="clipPath6662" clipPathUnits="userSpaceOnUse"><path id="path6664" d="M 0,648 L 432,648 L 432,0 L 0,0 L 0,648 z"/></clipPath><clipPath id="clipPath6656" clipPathUnits="userSpaceOnUse"><path id="path6658" d="M 262.975,549.378 L 396,549.378 L 396,507.171 L 262.975,507.171 L 262.975,549.378 z" clip-rule="evenodd"/></clipPath><clipPath id="clipPath6598" clipPathUnits="userSpaceOnUse"><path id="path6600" d="M 0,648.06 L 432,648.06 L 432,0.06 L 0,0.06 L 0,648.06 z"/></clipPath><clipPath id="clipPath6592" clipPathUnits="userSpaceOnUse"><path id="path6594" d="M 0,648 L 432,648 L 432,0 L 0,0 L 0,648 z"/></clipPath><clipPath id="clipPath6554" clipPathUnits="userSpaceOnUse"><path id="path6556" d="M 0,648.06 L 432,648.06 L 432,0.06 L 0,0.06 L 0,648.06 z"/></clipPath><clipPath id="clipPath6546" clipPathUnits="userSpaceOnUse"><path id="path6548" d="M 0,648 L 432,648 L 432,0 L 0,0 L 0,648 z"/></clipPath><clipPath id="clipPath6538" clipPathUnits="userSpaceOnUse"><path id="path6540" d="M 7.832,259.865 L 214.833,259.865 L 214.833,126 L 7.832,126 L 7.832,259.865 z" clip-rule="evenodd"/></clipPath><clipPath id="clipPath6528" clipPathUnits="userSpaceOnUse"><path id="path6530" d="M 0,648.06 L 432,648.06 L 432,0.06 L 0,0.06 L 0,648.06 z"/></clipPath><clipPath id="clipPath6522" clipPathUnits="userSpaceOnUse"><path id="path6524" d="M 0,648 L 432,648 L 432,0 L 0,0 L 0,648 z"/></clipPath><clipPath id="clipPath6516" clipPathUnits="userSpaceOnUse"><path id="path6518" d="M 7.832,259.865 L 214.833,259.865 L 214.833,126 L 7.832,126 L 7.832,259.865 z" clip-rule="evenodd"/></clipPath><linearGradient id="linearGradient4397" x1="53.182" x2="38.743" y1="15.226" y2=".786" gradientUnits="userSpaceOnUse" xlink:href="#linearGradient3344"/></defs><metadata id="metadata7"/><g id="layer1"><g id="g4419" transform="translate(-37.968945,-1.2296349e-2)"><g id="g4391"><rect id="rect3494" width="15.5" height="15.5" x="38.219" y=".262" rx="2.128" ry="2.128" style="fill:#eeeeec;fill-opacity:1;stroke:#000;stroke-width:.50021976;stroke-linecap:butt;stroke-linejoin:miter;stroke-miterlimit:4;stroke-dasharray:none;stroke-dashoffset:0;stroke-opacity:1"/><rect style="fill:none;fill-opacity:1;stroke:url(#linearGradient2521);stroke-width:.45142728;stroke-linecap:butt;stroke-linejoin:miter;stroke-miterlimit:4;stroke-dasharray:none;stroke-dashoffset:0;stroke-opacity:1" id="rect3496" width="13.988" height="13.988" x="38.969" y="1.012" rx="1.92" ry="1.92"/><path id="path3498" d="M 42.96875,5 C 42.129798,4.9999998 41.440871,5.2878646 40.9375,5.830292 C 40.445701,6.3668227 40.21875,7.0752137 40.21875,7.9949817 C 40.21875,8.8793744 40.485058,9.6111747 41,10.130019 C 41.526515,10.654758 42.22819,10.901004 43.125,10.901004 C 43.483725,10.901004 43.840348,10.859039 44.1875,10.782391 C 44.534653,10.711639 44.863491,10.603602 45.1875,10.456205 C 45.1875,10.456205 45.1875,9.5666057 45.1875,9.5666057 C 44.857705,9.7493787 44.523081,9.8933117 44.1875,9.9817517 C 43.851919,10.070191 43.503403,10.100365 43.15625,10.100365 C 42.537162,10.100365 42.071689,9.9323267 41.71875,9.5962587 C 41.377384,9.2601901 41.1875,8.7621506 41.1875,8.1135949 C 41.1875,8.1135945 45.40625,8.1135949 45.40625,8.1135949 C 45.40625,8.1135945 45.40625,7.6687956 45.40625,7.6687956 C 45.40625,6.8433619 45.189726,6.1833539 44.75,5.7116788 C 44.316059,5.234107 43.732485,5 42.96875,5 z M 42.9375,5.8006387 C 43.388798,5.8006385 43.759314,5.938675 44.03125,6.2157847 C 44.303186,6.4869987 44.4375,6.8530722 44.4375,7.3129562 C 44.4375,7.3129558 41.1875,7.3129562 41.1875,7.3129562 C 41.239572,6.8353833 41.417885,6.4811033 41.71875,6.2157847 C 42.025401,5.9504679 42.428343,5.8006387 42.9375,5.8006387 z" style="fill:#000;fill-opacity:1;stroke:#000;stroke-width:.09741176;stroke-miterlimit:4;stroke-dasharray:none;stroke-opacity:1"/><path id="path3500" d="M 49.71875,3.9343065 C 49.71875,3.9343066 46.5,9.0050182 46.5,9.0050182 C 46.5,9.0050179 46.5,10.01323 46.5,10.01323 C 46.5,10.01323 50,10.01323 50,10.01323 C 50,10.01323 50,11.584854 50,11.584854 C 50,11.584854 50.96875,11.584854 50.96875,11.584854 C 50.96875,11.584854 50.96875,10.01323 50.96875,10.01323 C 50.96875,10.01323 52.0625,10.01323 52.0625,10.01323 C 52.0625,10.01323 52.0625,9.1532846 52.0625,9.1532846 C 52.0625,9.1532848 50.96875,9.1532846 50.96875,9.1532846 C 50.96875,9.1532848 50.96875,3.9343065 50.96875,3.9343065 C 50.96875,3.9343066 49.71875,3.9343065 49.71875,3.9343065 z M 50,4.8832116 C 50,4.8832115 50,9.1532846 50,9.1532846 C 50,9.1532848 47.34375,9.1532846 47.34375,9.1532846 C 47.34375,9.1532848 50,4.8832116 50,4.8832116 z" style="fill:#000;fill-opacity:1;stroke:#000;stroke-width:.09741176;stroke-miterlimit:4;stroke-dasharray:none;stroke-opacity:1"/></g></g></g></svg>